<svg xmlns="http://www.w3.org/2000/svg" version="1.1" xmlns:xlink="http://www.w3.org/1999/xlink" xmlns:svgjs="http://svgjs.dev/svgjs" width="1000" height="1000" viewBox="0 0 1000 1000"><rect width="1000" height="1000" fill="#ffffff"></rect><g transform="matrix(0.7,0,0,0.7,150,281.25)"><svg viewBox="0 0 512 320" data-background-color="#ffffff" preserveAspectRatio="xMidYMid meet" height="625" width="1000" xmlns="http://www.w3.org/2000/svg" xmlns:xlink="http://www.w3.org/1999/xlink"><g id="tight-bounds" transform="matrix(1,0,0,1,0,0)"><svg viewBox="0 0 512 320" height="320" width="512"><g><svg></svg></g><g><svg viewBox="0 0 512 320" height="320" width="512"><g><path xmlns="http://www.w3.org/2000/svg" d="M96 320l0-320 320 0 0 320z" fill="#000000" fill-rule="nonzero" stroke="none" stroke-width="1" stroke-linecap="butt" stroke-linejoin="miter" stroke-miterlimit="10" stroke-dasharray="" stroke-dashoffset="0" font-family="none" font-weight="none" font-size="none" text-anchor="none" style="mix-blend-mode: normal" data-fill-palette-color="tertiary"></path></g><g transform="matrix(1,0,0,1,140.8,146.0817843866171)"><svg viewBox="0 0 230.4 27.836431226765797" height="27.836431226765797" width="230.4"><g><svg viewBox="0 0 230.4 27.836431226765797" height="27.836431226765797" width="230.4"><g><svg viewBox="0 0 230.4 27.836431226765797" height="27.836431226765797" width="230.4"><g><svg viewBox="0 0 230.4 27.836431226765797" height="27.836431226765797" width="230.4"><g><svg viewBox="0 0 230.4 27.836431226765797" height="27.836431226765797" width="230.4"><g><svg viewBox="0 0 230.4 27.836431226765797" height="27.836431226765797" width="230.4"><g transform="matrix(1,0,0,1,0,0)"><svg width="230.4" viewBox="-0.550000011920929 -35.75 295.8799743652344 35.75" height="27.836431226765797" data-palette-color="#ff4136"><path d="M-0.55-2.15L4.3-2.15 4.3-34.95 11.6-34.95 28.75-12.45 28.75-34.95 36.55-34.95 36.55-2.15 41.4-2.15 41.4 0 28.75 0 12.1-21.9 12.1 0-0.55 0-0.55-2.15ZM71-2.15L82.15-2.15 82.15 0 40.85 0 40.85-2.15 52-2.15Q47.9-4.5 45.52-8.6 43.15-12.7 43.15-17.7L43.15-17.7Q43.15-25.4 48.45-30.58 53.75-35.75 61.5-35.75 69.25-35.75 74.55-30.58 79.85-25.4 79.85-17.7L79.85-17.7Q79.85-12.7 77.45-8.6 75.05-4.5 71-2.15L71-2.15ZM71.9-17.68Q71.9-22.35 68.9-25.65 65.9-28.95 61.52-28.95 57.15-28.95 54.15-25.65 51.15-22.35 51.15-17.68 51.15-13 54.15-9.73 57.15-6.45 61.52-6.45 65.9-6.45 68.9-9.73 71.9-13 71.9-17.68ZM81.6-2.15L86.45-2.15 86.45-34.95 111.65-34.95 111.65-28 94.25-28 94.25-20.8 109.9-20.8 109.9-14.15 94.25-14.15 94.25-6.9 112.2-6.9 112.2-2.15 117.05-2.15 117.05 0 81.6 0 81.6-2.15ZM114.84-2.15L128.04-2.15 128.04 0 114.84 0 114.84-2.15ZM127.49-2.15L132.34-2.15 132.34-34.95 145.59-34.95Q153.74-34.95 157.22-32.2 160.69-29.45 160.69-23.35L160.69-23.35Q160.69-14.95 154.04-12.5L154.04-12.5 161.34-2.15 166.04-2.15 166.04 0 153.29 0 145.54-11.15 140.14-11.15 140.14 0 127.49 0 127.49-2.15ZM145.84-17.9Q149.84-17.9 151.29-19.2 152.74-20.5 152.74-23.33 152.74-26.15 151.24-27.2 149.74-28.25 145.99-28.25L145.99-28.25 140.14-28.25 140.14-17.9 145.84-17.9ZM200.94-2.15L206.74-2.15 206.74 0 193.59 0 190.34-7.55 175.69-7.55 172.44 0 159.29 0 159.29-2.15 165.04-2.15 179.24-34.95 186.79-34.95 200.94-2.15ZM187.39-14.4L183.04-24.55 178.64-14.4 187.39-14.4ZM228.64-2.15L233.49-2.15 233.49 0 201.09 0 201.09-2.15 205.94-2.15 205.94-34.95 213.74-34.95 213.74-6.95 228.64-6.95 228.64-2.15ZM249.13-2.15L260.43-2.15 260.43 0 230.03 0 230.03-2.15 241.33-2.15 241.33-28.2 231.43-28.2 231.43-34.95 259.03-34.95 259.03-28.2 249.13-28.2 249.13-2.15ZM259.88-2.15L264.73-2.15 264.73-34.95 289.93-34.95 289.93-28 272.53-28 272.53-20.8 288.18-20.8 288.18-14.15 272.53-14.15 272.53-6.9 290.48-6.9 290.48-2.15 295.33-2.15 295.33 0 259.88 0 259.88-2.15Z" opacity="1" transform="matrix(1,0,0,1,0,0)" fill="#ff4136" class="undefined-text-0" data-fill-palette-color="quaternary" id="text-0"></path></svg></g></svg></g></svg></g></svg></g><g></g></svg></g></svg></g></svg></g></svg></g><defs></defs></svg><rect width="512" height="320" fill="none" stroke="none" visibility="hidden"></rect></g></svg></g></svg>